# xmcd
#
# Track frame offsets:
#	150
#	15632
#	30300
#	43950
#	57452
#	72442
#	89100
#	104290
#	116377
#	134320
#	146615
#	159362
#	174667
#	185635
#	197570
#	211684
#	225175
#	235792
#
# Disc length: 3282 seconds
#
# Revision: 1
# Processed by: cddbd v1.5.1PL0 Copyright (c) Steve Scherf et al.
# Submitted via: EasyCDDAExtractor 6.2.0.3
#
DISCID=f40cd012
DTITLE=Kenny Rogers - Country Greatest
DYEAR=1900
DGENRE=Country
TTITLE0=For The Good Times
TTITLE1=Sunshine
TTITLE2=Ruby, Don't Take Your Love To Town
TTITLE3=Shine On Ruby Mountain
TTITLE4=Heed The Calls
TTITLE5=Tulsa Turnaround
TTITLE6=Just Dropped In
TTITLE7=Me And Bobby Mc Ghee
TTITLE8=Something's Burning
TTITLE9=Elvira
TTITLE10=Rueben James
TTITLE11=Tell It All Brother
TTITLE12=She Even Woke Me Up To Say Goodbye
TTITLE13=A Poem For My Little Lady
TTITLE14=But You Know I Love You
TTITLE15=Sleep Comes Easy
TTITLE16=Trying Just As Hard
TTITLE17=We All Go To Help Eachother
EXTD=
EXTT0=
EXTT1=
EXTT2=
EXTT3=
EXTT4=
EXTT5=
EXTT6=
EXTT7=
EXTT8=
EXTT9=
EXTT10=
EXTT11=
EXTT12=
EXTT13=
EXTT14=
EXTT15=
EXTT16=
EXTT17=
PLAYORDER=
